<svg width="850" height="850" viewBox="0 0 850 850" fill="none" xmlns="http://www.w3.org/2000/svg">
<g clip-path="url(#clip0_1309_23)">
<rect width="850" height="850" rx="12" fill="url(#paint0_linear_1309_23)"/>
<path d="M593.07 152.846C594.4 153.972 600.793 167.798 603.946 171.269C618.861 187.687 632.977 198.644 642.1 219.67C651.745 241.894 647.395 260.249 652.553 281.908C654.616 290.573 670.301 319.387 676.583 326.346C672.698 311.243 666.574 296.814 664.484 281.243C662.272 264.759 662.98 249.172 668.009 233.318L669.922 233.755C690.564 238.671 706.263 249.763 717.55 268.373C735.562 298.075 736.126 351.905 728.494 385.329C725.788 397.182 717.83 411.484 714.29 425.612C718.084 422.125 720.686 419.22 724.882 415.826C739.695 403.605 762.719 398.886 781.479 402.527C794.559 405.067 805.274 408.002 818.928 409.39C812.829 441.17 783.318 461.615 752.283 463.537C740.618 464.259 721.795 463.681 711.555 468.408C699.246 474.089 691.085 499.362 687.054 511.722C684.828 518.854 683.639 528.202 680.97 535.742C671.861 561.467 646.72 579.918 623.433 592.355C614.142 597.318 604.656 601.049 595.322 605.612C622.286 606.023 647.73 614.694 662.071 639.484C667.972 649.684 672.24 669.061 671.15 681.434C670.894 684.34 661.038 684.558 658.401 685.162C654.409 686.077 648.966 687.158 644.826 688.08C621.948 693.312 598.509 691.143 578.836 677.644C566.1 669.214 550.877 658.064 536.646 652.384C513.592 643.18 485.192 649.207 461.731 654.319C455.428 655.695 446.589 657.329 440.844 659.818C448.282 662.631 458.529 664.552 466.499 667.117C482.25 672.186 497.846 678.416 512.729 685.868C524.527 691.774 545.672 704.312 550.507 717.733C551.869 721.515 551.005 724.056 549.285 727.408C534.811 742.543 529.431 726.364 519.938 717.247C498.838 696.978 471.954 683.499 443.431 677.402C444.671 679.478 445.959 681.203 446.326 683.551C446.099 684.164 446.103 684.679 445.515 684.868C426.448 690.977 426.316 662.098 430.526 650.948C432.924 644.598 434.758 641.358 440.261 638.6C446.459 638.67 452.762 639.856 459.407 639.771C478.825 639.521 494.635 631.609 511.695 623.677C504.184 616.779 498.108 608.016 493.548 598.929C476.154 564.27 487.56 516.441 523.759 498.905C527.227 501.93 530.24 505.953 533.376 509.334C564.348 542.732 567.287 581.113 537.472 617.025C542.456 615.715 552.663 611.144 558.122 609.234C565.48 606.658 579.332 600.658 584.748 595.142C598.299 581.344 594.753 553.68 598.078 536.142C600.253 524.675 604.9 511.762 611.408 502.274C627.601 478.665 644.684 471.218 670.958 465.453C673.893 474.93 675.908 483.265 677.575 493.009C687.022 475.734 696.177 456.875 700.873 437.872C707.117 412.605 705.913 391.25 690.279 369.9C685.661 363.594 678.283 354.743 674.36 348.552C666.294 335.82 660.395 321.505 652.204 308.469C643.26 294.237 633.171 280.623 621.209 268.753C616.723 264.3 608.497 256.015 602.403 254.535C591.994 252.009 576.248 263.292 566.098 266.313C556.079 269.296 547.818 270.752 537.519 270.44C521.177 269.946 509.666 263.122 495.186 256.854C489.654 254.46 483.553 252.863 477.672 251.413C486.865 232.745 508.166 218.553 528.489 215.017C552.42 210.852 573.348 218.776 592.858 232.303C587.577 219.399 581.766 208.167 581.235 193.961C580.628 177.758 583.397 165.853 593.07 152.846ZM608.309 582.799C648.174 563.758 673.906 534.375 662.119 487.897C635.939 504.481 616.661 534.416 610.062 564.406C609.41 567.369 606.241 581.026 606.75 583.022C607.038 582.985 608.071 582.873 608.309 582.799ZM652.206 661.931C646.121 646.611 638.013 638.254 622.677 631.222C610.925 625.835 592.545 623.438 579.646 624.993C566.329 626.291 553.62 629.272 541.255 634.468C552.266 637.076 561.108 639.858 571.624 644.619C586.437 651.324 599.813 659.444 615.8 663.109C630.56 665.2 637.603 664.358 652.206 661.931ZM714.41 379.488C720.602 346.425 713.195 302.073 694.473 273.352C692.469 270.274 685.072 261.476 681.974 259.72C681.28 289.726 686.929 317.056 698.452 344.707C703.103 355.868 709.401 369.017 713.391 380.267L713.921 380.719L714.41 379.488ZM599.714 193.857C600.389 215.626 615.561 254.649 637.256 263.18C629.474 241.322 621.195 223.75 607.895 204.478C605.846 201.508 602.229 196.125 599.714 193.857ZM534.448 235.261C525.286 236.133 513.629 238.598 505.854 243.833C523.536 250.855 531.255 253.652 550.985 253.044C562.801 251.651 567.973 249.488 578.524 243.963C565.393 238.343 548.957 233.066 534.448 235.261ZM523.233 525.906C510.581 541.214 506.132 556.739 507.795 576.659C508.823 588.987 514.454 606.018 522.2 615.709C534.345 601.309 538.619 582.534 537.286 563.955C536.458 552.423 530.582 534.957 523.233 525.906ZM787.789 423.731C781.813 422.518 768.819 421.183 762.741 422.264C741.712 424.76 727.891 431.531 715.506 449.137C722.86 447.594 731.332 446.787 738.855 445.487C761.942 441.247 770.156 438.147 787.789 423.731Z" fill="url(#paint1_linear_1309_23)"/>
<path d="M256.118 152.825C274.962 173.996 271.299 209.762 257.107 232.346C291.746 208.08 332.917 205.175 363.166 239.381C366.224 242.839 369.55 247.052 371.541 251.228C356.087 255.25 350.218 258.661 336.236 264.985C317.929 272.661 299.142 271.795 280.752 265.169C273.345 263.107 253.3 250.658 246.291 255.002C224.097 268.758 205.697 294.68 192.752 316.909C187.097 326.62 183.872 335.411 178.287 344.323C168.461 360.004 155.214 372.458 148.758 389.998C140.375 412.986 148.628 443.812 158.398 465.335C162.335 474.006 167.793 483.621 172.079 492.746C173.686 484.606 176.003 473.477 178.878 465.724C218.542 470.844 248.041 500.882 252.668 540.666C254.348 555.115 253.548 587.456 266.711 596.576C277.318 603.925 299.169 612.543 311.927 616.703C295.879 597.767 287.595 574.657 293.391 549.876C298.346 528.702 312.022 514.574 325.935 498.863C331.961 501.739 336.397 504.45 341.151 509.221C374.706 542.894 370.705 590.427 338.657 623.29C355.918 631.806 371.541 639.682 391.328 639.908C397.915 639.982 408.491 636.4 413.493 640.807C422.705 648.925 423.831 668.202 418.973 678.853C416.834 683.706 407.522 688.259 403.224 684.673C403.342 682.928 405.49 679.182 406.383 677.418C376.022 684.684 348.009 697.01 326.556 720.581C322.156 725.417 317.929 735.343 310.615 733.566C305.594 732.345 302.524 730.108 299.676 725.946C297.243 719.446 301.273 712.387 305.882 707.925C333.633 681.05 374.627 669.901 410.839 659.789C404.373 657.34 381.752 653.104 373.913 651.384C352.333 647.028 327.573 644.523 307.329 654.768C285.18 665.977 268.589 684.76 243.462 689.441C220.537 693.712 200.829 685.639 178.717 683.298C179.478 662.258 182.611 642.06 197.973 626.413C213.391 610.707 233.143 605.933 254.389 605.592C249.22 602.289 242.24 599.822 236.476 597.316C210.85 586.175 186.005 569.248 172.635 543.993C167.81 534.881 167.083 525.304 163.88 515.211C159.3 500.781 153.682 481.645 142.523 470.912C131.343 461.902 106.389 465.129 92.3525 462.87C79.3281 460.774 68.9013 457.789 57.8877 450.273C43.4502 440.421 34.2793 426.544 31.0088 409.427C46.7139 409.19 62.2168 401.502 78.4111 401.462C104.074 401.398 118.353 409.176 135.977 426.174C132.691 411.995 125.208 398.816 121.777 385.153C115.56 357.591 115.769 324.346 121.53 296.748C128.611 262.831 149.933 241.931 182.485 233.086C193.56 267.382 183.607 295.151 172.924 327.034C182.452 317.006 194.526 292.053 198.521 278.304C199.739 274.113 200.344 262.346 200.311 257.703C200.138 233.256 208.824 210.116 225.472 192.141C237.499 179.251 249.839 170.181 256.118 152.825ZM242.278 582.918L243.074 583.142C243.602 581.627 242.631 577.995 242.384 576.223C237.538 541.525 217.922 507.037 187.895 487.814C176.986 533.364 201.848 565.183 242.278 582.918ZM244.456 660.014C256.441 655.596 266.474 649.857 277.947 644.46C287.672 639.884 297.111 637.198 307.425 634.56C293.294 627.858 271.408 622.908 255.661 624.916C228.123 626.745 209.208 636.654 197.466 662.068C216.047 665.227 226.206 665.75 244.456 660.014ZM135.483 379.006L136.079 379.826C137.944 378.661 155.23 336.314 157.039 330.306C158.242 326.31 161.547 313.484 162.761 309.302C165.113 301.19 169.726 266.932 167.899 260.348C162.936 265.331 157.686 270.524 154.023 276.56C137.121 304.414 128.397 347.26 135.483 379.006ZM249.966 193.907C236.137 212.831 223.983 232.135 215.946 254.256C215.172 256.39 212.485 262.227 212.916 264.056C217.649 260.306 223.536 255.856 227.567 251.244C239.462 237.638 247.143 218.218 249.786 200.385C250.037 198.688 250.371 195.478 249.966 193.907ZM302.607 235.262C290.033 236.254 282.153 239.002 270.639 244.031C284.334 250.157 294.88 254.339 310.453 252.92C324.779 251.594 330.019 249.428 342.707 243.723C328.875 237.476 318.344 233.826 302.607 235.262ZM327.07 525.889C315.042 543.966 309.82 562.914 313.966 584.655C315.521 592.807 321.505 610.421 328.087 615.682C339.805 597.282 345.66 575.373 340.897 553.748C338.966 544.975 333.679 532.183 327.07 525.889ZM133.07 448.598C121.555 431.47 99.081 421.246 78.8623 421.943C76.3134 422.031 72.6211 421.864 70.1836 422.261L60.9892 423.402C82.3066 441.96 98.4531 444.863 126.054 447.88L133.07 448.598Z" fill="url(#paint2_linear_1309_23)"/>
<path d="M209.294 330.298C228.91 329.84 249.082 330.384 268.78 330.171C281.387 330.32 294.098 329.842 306.687 330.477C314.814 330.964 325.805 334.202 329.509 342.2C338.383 361.36 315.066 375.014 300.597 379.433C327.357 385.016 350.544 406.614 339.3 435.493C326.932 457.791 299.789 457.323 277.444 457.223C255.67 457.124 233.884 457.186 212.111 457.228C210.132 457.231 209.78 457.292 208.58 455.985C208.534 451.448 215.342 449.992 217.034 447.214C220.581 441.394 219.569 427.426 219.581 420.943L219.622 389.002L219.638 362.09C219.632 349.267 221.802 340.94 209.743 334.541C208.605 333.938 209.183 331.458 209.294 330.298ZM259.489 393.763L259.267 419.635C259.235 424.718 258.348 438.022 261.995 441.614C266.526 446.079 278.097 444.611 283.842 442.68C286.183 441.598 288.888 440.355 290.765 438.604C307.921 422.596 300.633 390.687 274.485 390.553C268.113 390.912 265.584 391.675 259.489 393.763ZM259.055 379.503C265.003 377.893 270.2 376.539 275.994 374.422C281.618 371.851 288.437 368.245 290.383 362.072C295.304 346.447 281.255 343.028 269.779 343.619C254.351 345.229 259.781 366.725 259.055 379.503Z" fill="url(#paint3_linear_1309_23)"/>
<path d="M583.833 341.316C580.552 338.44 571.211 335.563 574.496 330.571C578.64 329.793 590.254 330.138 595.206 330.149L636.45 330.257C636.707 332.008 636.786 334.067 636.902 335.853C612.631 342.672 606.239 347.219 586.808 364.577C606.19 379.885 616.361 399.673 624.479 422.412C627.9 431.993 629.759 440.045 636.559 447.778C639.317 449.937 641.496 450.629 644.699 451.809C644.734 453.295 645.285 457.278 642.907 457.129C635.045 456.64 583.335 458.554 580.328 456.267L580.204 455.051C581.88 451.281 588.626 447.425 587.697 442.6C584.293 424.907 573.074 400.563 559.836 388.516L559.393 388.12C555.958 389.962 553.958 391.284 551.137 393.913C550.304 404.751 550.593 433.335 551.826 444.995C552.145 448.015 560.19 451.347 561.791 455.045C561.594 456.607 561.974 456.043 560.889 456.938C555.541 457.59 538.279 457.142 532.28 457.167C526.73 457.192 504.271 457.62 499.817 456.772L499.114 455.537C499.792 449.382 508.913 452.896 509.115 440.144C509.344 425.674 509.18 411.027 509.193 396.546L509.209 366.161C509.205 359.029 509.323 351.377 508.384 344.407C507.633 338.831 503.018 337.768 499.196 334.786C498.028 333.875 498.362 331.866 498.335 330.231L539.546 330.136C544.683 330.125 556.458 329.823 561.07 330.427C563.928 334.645 559.205 336.972 556.133 338.548C552.17 340.581 551.404 345.695 551.183 349.935C550.725 358.722 550.946 367.828 550.997 376.672C560.925 368.459 579.019 352.9 583.833 341.316Z" fill="url(#paint4_linear_1309_23)"/>
<path d="M464.059 329.495C466.429 329.448 465.556 329.023 466.989 330.31C467.552 331.62 474.561 366.945 474.635 368.714C473.87 369.972 473.777 369.654 472.021 370.298C468.715 369.135 465.298 360.147 462.207 356.903C454.344 348.652 445.561 344.335 434.117 343.923C429.233 343.885 420.362 343.089 416.63 346.885C412.414 351.171 413.604 363.874 413.541 369.802C417.772 369.931 421.794 369.906 426.089 369.832C433.557 369.705 442.026 367.917 443.584 359.293C443.815 358.01 444.019 357.349 444.536 356.177C446.142 355.501 445.312 355.623 447.127 355.927C448.959 357.676 454.972 398.144 455.561 403.323L450.538 404.144C444.438 383.839 431.175 384.841 413.676 385.088C413.503 394.888 413.56 404.909 413.588 414.718C413.611 422.732 412.368 433.97 416.494 440.781C421.356 443.2 426.355 444.046 431.739 443.823C447.604 443.165 457.559 438.497 468.307 427.269C474.56 420.199 476.729 414.203 480.505 405.627C482.24 406.351 482.71 406.568 484.284 407.574C485.071 410.158 472.658 450.77 470.849 457.247H362.231C362.276 455.703 362.367 454.124 362.44 452.578L362.79 452.425L363.369 452.164C369.893 449.276 371.673 445.323 371.656 438.221C371.58 406.803 373.011 374.799 371.009 343.536C370.782 340.001 365.179 336.803 362.476 335.333C362.447 333.507 362.196 331.998 361.948 330.185L420.952 330.201C435.315 330.219 449.757 330.571 464.059 329.495Z" fill="url(#paint5_linear_1309_23)"/>
<path d="M490.125 138.073C513.583 134.808 539.488 146.445 552.53 165.768C561.604 179.213 570.476 197.847 576.715 212.791C558.607 203.482 550.306 202.412 530.465 205.168C512.038 208.123 499.179 207.718 481.645 199.662C462.472 190.853 443.389 171.28 436.24 151.295C442.007 150.288 450.588 149.527 455.858 147.814C469.004 143.54 476.197 139.727 490.125 138.073ZM466.267 163.49C483.327 182.458 502.158 192.635 528.049 190.013L546.651 187.311C534.926 172.579 520.121 162.598 501.195 160.73C497.484 160.363 489.446 160.003 485.842 160.555C478.668 161.234 473.244 161.591 466.267 163.49Z" fill="url(#paint6_linear_1309_23)"/>
<path d="M344.049 138.065C364.995 136.418 374.036 142.296 393.159 147.908C399.543 149.782 407.033 150.48 413.657 150.727C405.955 177.346 375.659 201.958 348.538 205.903C344.662 206.468 340.776 206.783 336.871 207.054C322.551 206.716 309.828 202.39 296.286 204.411C290.111 205.332 281.56 209.253 275.079 211.07L274.676 210.754C274.562 205.759 294.527 169.701 299.039 164.2C311.6 148.883 324.591 140.571 344.049 138.065ZM303.294 187.566C315.596 188.249 325.035 191.601 338.205 190.11C354.386 188.539 374.061 175.636 383.966 163.135C373.135 161.101 361.597 159.619 350.591 160.54C327.102 163.441 318.724 170.743 303.294 187.566Z" fill="url(#paint7_linear_1309_23)"/>
</g>
<defs>
<linearGradient id="paint0_linear_1309_23" x1="0" y1="0" x2="850" y2="850" gradientUnits="userSpaceOnUse">
<stop stop-color="#C49E5E"/>
<stop offset="1" stop-color="#A98240"/>
</linearGradient>
<linearGradient id="paint1_linear_1309_23" x1="623.612" y1="152.846" x2="623.612" y2="733.612" gradientUnits="userSpaceOnUse">
<stop stop-color="white"/>
<stop offset="1" stop-color="#F7FAFC"/>
</linearGradient>
<linearGradient id="paint2_linear_1309_23" x1="226.406" y1="152.825" x2="226.406" y2="733.777" gradientUnits="userSpaceOnUse">
<stop stop-color="white"/>
<stop offset="1" stop-color="#F7FAFC"/>
</linearGradient>
<linearGradient id="paint3_linear_1309_23" x1="275.392" y1="330.108" x2="275.392" y2="457.242" gradientUnits="userSpaceOnUse">
<stop stop-color="white"/>
<stop offset="1" stop-color="#F7FAFC"/>
</linearGradient>
<linearGradient id="paint4_linear_1309_23" x1="571.544" y1="330.051" x2="571.544" y2="457.418" gradientUnits="userSpaceOnUse">
<stop stop-color="white"/>
<stop offset="1" stop-color="#F7FAFC"/>
</linearGradient>
<linearGradient id="paint5_linear_1309_23" x1="423.134" y1="329.391" x2="423.134" y2="457.247" gradientUnits="userSpaceOnUse">
<stop stop-color="white"/>
<stop offset="1" stop-color="#F7FAFC"/>
</linearGradient>
<linearGradient id="paint6_linear_1309_23" x1="506.478" y1="137.526" x2="506.478" y2="212.791" gradientUnits="userSpaceOnUse">
<stop stop-color="white"/>
<stop offset="1" stop-color="#F7FAFC"/>
</linearGradient>
<linearGradient id="paint7_linear_1309_23" x1="344.166" y1="137.783" x2="344.166" y2="211.07" gradientUnits="userSpaceOnUse">
<stop stop-color="white"/>
<stop offset="1" stop-color="#F7FAFC"/>
</linearGradient>
<clipPath id="clip0_1309_23">
<rect width="850" height="850" rx="12" fill="white"/>
</clipPath>
</defs>
</svg>
