<!DOCTYPE svg PUBLIC "-//W3C//DTD SVG 1.1//EN" "http://www.w3.org/Graphics/SVG/1.1/DTD/svg11.dtd">
<!-- Uploaded to: SVG Repo, www.svgrepo.com, Transformed by: SVG Repo Mixer Tools -->
<svg version="1.1" id="Layer_1" xmlns="http://www.w3.org/2000/svg" xmlns:xlink="http://www.w3.org/1999/xlink" viewBox="0 0 512.001 512.001" xml:space="preserve" width="800px" height="800px" fill="#000000">
<g id="SVGRepo_bgCarrier" stroke-width="0"/>
<g id="SVGRepo_tracerCarrier" stroke-linecap="round" stroke-linejoin="round"/>
<g id="SVGRepo_iconCarrier"> <path style="fill:#949494;" d="M426.808,290.373c0,94.335-76.473,170.808-170.808,170.808S85.193,384.709,85.193,290.373 S161.665,119.566,256,119.566S426.808,196.038,426.808,290.373z M256,213.51c-42.451,0-76.864,34.414-76.864,76.864 s34.412,76.864,76.864,76.864c42.451,0,76.864-34.414,76.864-76.864S298.451,213.51,256,213.51z"/> <path style="fill:#535353;" d="M384.106,290.373c0,70.751-57.355,128.106-128.106,128.106s-128.106-57.355-128.106-128.106 S185.25,162.268,256,162.268S384.106,219.623,384.106,290.373z M256,213.51c-42.451,0-76.864,34.414-76.864,76.864 s34.412,76.864,76.864,76.864c42.451,0,76.864-34.414,76.864-76.864S298.451,213.51,256,213.51z"/> <g> <path style="fill:#F1EDE8;" d="M345.223,229.678l-34.162,17.081c-5.678,2.84-12.36-1.29-12.36-7.638v-85.393h51.242v68.313 C349.945,225.274,348.117,228.231,345.223,229.678z"/> <path style="fill:#F1EDE8;" d="M166.777,229.678l34.162,17.081c5.678,2.84,12.36-1.29,12.36-7.638v-85.393h-51.242v68.313 C162.056,225.274,163.884,228.231,166.777,229.678z"/> </g> <g> <rect x="298.7" y="153.727" style="fill:#E3DCD2;" width="51.242" height="25.621"/> <rect x="162.054" y="153.727" style="fill:#E3DCD2;" width="51.242" height="25.621"/> </g> <path style="fill:#F9C900;" d="M375.566,93.944h-85.404V8.54c0-4.716-3.824-8.54-8.54-8.54h-51.242c-4.716,0-8.54,3.824-8.54,8.54 v85.404h-85.404c-4.716,0-8.54,3.824-8.54,8.54v51.242c0,4.716,3.824,8.54,8.54,8.54h85.404v179.348c0,4.716,3.824,8.54,8.54,8.54 h51.242c4.716,0,8.54-3.824,8.54-8.54V162.268h85.404c4.716,0,8.54-3.824,8.54-8.54v-51.242 C384.106,97.768,380.282,93.944,375.566,93.944z"/> <polygon style="fill:#F5E038;" points="238.92,333.075 238.92,145.187 144.975,145.187 144.975,111.025 238.92,111.025 238.92,17.081 273.081,17.081 273.081,111.025 367.026,111.025 367.026,145.187 273.081,145.187 273.081,333.075 "/> <path style="fill:#F1EDE8;" d="M349.261,89.843c0.442,2.652-0.382,5.354-2.241,7.297c-10.196,10.658-42.05,39.507-91.019,39.507 c-7.225,0-54.855-0.81-91.074-39.525c-1.818-1.943-2.628-4.63-2.191-7.255c1.661-9.963,3.321-19.928,4.982-29.891 c1.122-6.73,9.28-9.492,14.26-4.827C195.533,67.846,220.651,85.404,256,85.404c4.709,0,43.433-0.669,74.032-29.879 c4.953-4.728,13.18-1.977,14.305,4.778C345.979,70.15,347.62,79.997,349.261,89.843z"/> <path style="fill:#c49e5e;" d="M387.129,494.264l-51.085-24.992l-40.21,40.219c-4.912,4.913-13.321,2.218-14.463-4.633L256,352.746 l117.936-19.671l25.369,152.111C400.448,492.039,393.368,497.316,387.129,494.264z"/> <rect x="260.145" y="342.518" transform="matrix(-0.9864 0.1645 -0.1645 -0.9864 696.8013 687.6176)" style="fill:#a98240;" width="119.568" height="60.286"/> <path style="fill:#c49e5e;" d="M124.871,494.264l51.085-24.992l40.21,40.219c4.912,4.913,13.321,2.218,14.463-4.633l25.369-152.111 l-117.936-19.671l-25.369,152.111C111.551,492.039,118.631,497.316,124.871,494.264z"/> <rect x="132.277" y="342.491" transform="matrix(0.9864 0.1645 -0.1645 0.9864 63.9132 -26.5171)" style="fill:#a98240;" width="119.568" height="60.286"/> <g> <path style="fill:#c49e5e;" d="M440.369,388.522l-141.667-29.825v-68.323l141.668-29.825c10.617-2.235,20.599,5.865,20.599,16.715 v94.544C460.97,382.657,450.986,390.756,440.369,388.522z"/> <path style="fill:#c49e5e;" d="M71.63,388.522l141.668-29.825v-68.323L71.63,260.548c-10.617-2.235-20.599,5.865-20.599,16.715 v94.544C51.031,382.657,61.014,390.756,71.63,388.522z"/> </g> <g> <polygon style="fill:#d9bb82;" points="90.44,264.508 51.031,303.918 51.031,328.072 110.393,268.71 "/> <path style="fill:#d9bb82;" d="M146.88,276.391l-95.826,95.826c0.155,6.572,3.961,12.089,9.331,14.824l106.449-106.449 L146.88,276.391z"/> <polygon style="fill:#d9bb82;" points="213.298,290.373 203.321,288.273 111.457,380.136 142.053,373.696 213.298,302.451 "/> <polygon style="fill:#d9bb82;" points="348.31,279.93 298.702,329.539 298.702,353.693 378.907,273.488 "/> <path style="fill:#d9bb82;" d="M440.369,260.548l-5.517,1.161L331.055,365.508l19.955,4.201l104.728-104.728 C451.837,261.226,446.205,259.321,440.369,260.548z"/> <polygon style="fill:#d9bb82;" points="460.97,303.918 387.496,377.391 407.451,381.591 460.97,328.072 "/> </g> <circle style="fill:#a98240;" cx="255.998" cy="324.535" r="59.783"/> <path style="fill:#a07c3e;" d="M273.081,367.237c-33.017,0-59.783-26.766-59.783-59.783c0-12.139,3.629-23.426,9.845-32.857 c-16.217,10.692-26.926,29.06-26.926,49.938c0,33.017,26.766,59.783,59.783,59.783c20.878,0,39.245-10.709,49.938-26.926 C296.508,363.608,285.22,367.237,273.081,367.237z"/> </g>
</svg>